<?xml version="1.0" standalone="no"?>
<!DOCTYPE svg PUBLIC "-//W3C//DTD SVG 20010904//EN"
 "http://www.w3.org/TR/2001/REC-SVG-20010904/DTD/svg10.dtd">
<svg version="1.0" xmlns="http://www.w3.org/2000/svg"
 width="1395.000000pt" height="1582.000000pt" viewBox="0 0 1395.000000 1582.000000"
 preserveAspectRatio="xMidYMid meet">

<g transform="translate(0.000000,1582.000000) scale(0.100000,-0.100000)"
fill="#000000" stroke="none">
<path d="M6485 15799 c-562 -41 -1013 -150 -1384 -335 -514 -256 -874 -664
-1129 -1279 -27 -66 -52 -128 -55 -137 -5 -15 -10 -15 -53 -2 -65 19 -130 18
-205 -6 -473 -146 -762 -1118 -497 -1670 55 -115 155 -217 244 -249 l61 -22
-5 -237 c-3 -181 0 -271 12 -381 74 -639 396 -1095 979 -1387 161 -81 242
-114 442 -179 l160 -52 -55 -7 c-674 -87 -1195 -259 -1533 -508 l-68 -50 -92
30 c-150 49 -672 131 -1067 167 -261 23 -631 38 -795 30 -412 -18 -697 -124
-896 -332 -120 -126 -173 -230 -273 -543 -264 -821 -336 -1904 -211 -3160 43
-427 141 -1093 216 -1475 77 -385 271 -685 522 -809 134 -66 198 -80 352 -80
340 1 617 148 802 425 62 93 76 118 210 369 355 664 699 1378 984 2048 56 130
103 238 103 239 1 1 17 -48 35 -110 102 -347 296 -817 476 -1147 202 -373 324
-491 690 -670 175 -85 317 -143 525 -213 145 -49 374 -117 393 -117 9 0 12
-54 13 -195 0 -190 0 -195 -20 -195 -54 -1 -258 -30 -315 -45 -417 -108 -573
-491 -401 -980 42 -118 200 -444 291 -598 320 -542 788 -1086 1382 -1609 291
-256 436 -325 662 -315 230 9 396 105 780 451 693 625 1173 1271 1480 1992
141 333 159 547 63 744 -45 93 -159 204 -259 253 -97 47 -232 82 -378 96 -63
6 -115 12 -116 13 -1 2 2 44 6 93 4 50 5 135 2 191 l-6 101 74 17 c41 10 151
43 244 73 506 163 859 340 1041 521 108 107 203 259 359 574 173 348 272 603
411 1057 3 8 6 12 8 10 3 -2 54 -119 114 -259 290 -674 642 -1405 983 -2040
168 -313 221 -393 338 -511 110 -111 194 -162 339 -209 364 -118 671 -52 897
192 122 132 205 290 271 517 48 167 174 949 223 1386 63 563 76 787 76 1360 0
521 -5 632 -46 980 -68 590 -244 1237 -401 1470 -146 220 -416 370 -750 419
-286 42 -803 25 -1358 -45 -286 -35 -639 -98 -738 -131 l-93 -31 -27 21 c-329
258 -832 434 -1510 528 l-122 17 137 43 c788 245 1241 671 1402 1319 45 183
56 295 56 592 l-1 282 61 22 c84 31 187 134 238 241 163 339 130 866 -80 1270
-101 194 -248 347 -383 399 -73 28 -182 36 -238 16 -42 -15 -44 -14 -52 6
-115 286 -202 460 -314 632 -363 553 -865 874 -1611 1029 -140 29 -284 50
-485 72 -170 19 -941 28 -1135 13z m1125 -273 c749 -85 1230 -274 1598 -630
247 -239 448 -570 595 -983 l26 -72 -31 -68 c-120 -265 -121 -676 -2 -1031 82
-244 221 -456 363 -553 49 -33 50 -35 58 -99 4 -36 8 -177 7 -315 -1 -271 -14
-380 -69 -570 -70 -242 -230 -488 -421 -647 -383 -318 -937 -503 -1779 -593
-226 -25 -1727 -25 -1960 0 -1267 132 -1961 512 -2188 1200 -70 211 -92 401
-84 715 4 124 10 236 13 250 3 15 29 41 61 65 140 101 280 317 356 550 68 205
92 382 84 604 -6 176 -32 300 -88 422 l-32 69 33 87 c151 407 315 684 540 917
170 176 331 292 555 402 326 158 734 254 1255 294 191 14 941 5 1110 -14z
m-2661 -5970 c-359 -145 -540 -345 -589 -650 -16 -94 -8 -364 15 -566 43 -365
122 -578 269 -718 90 -87 170 -122 366 -162 485 -98 786 -290 952 -607 54
-102 90 -217 148 -468 100 -426 202 -639 364 -761 73 -56 101 -70 188 -100
104 -35 213 -47 367 -41 236 10 365 60 501 196 67 67 96 106 132 176 64 123
117 283 173 520 64 270 90 356 135 446 163 328 453 529 901 624 285 60 338 83
445 189 109 109 175 253 223 487 53 258 74 715 38 854 -67 263 -261 458 -579
581 -54 21 -96 39 -95 41 2 1 61 -6 133 -17 791 -118 1314 -354 1507 -681 54
-91 96 -207 124 -339 20 -94 26 -154 30 -330 8 -308 -6 -451 -112 -1180 -78
-531 -128 -755 -245 -1095 -167 -485 -448 -1047 -600 -1205 -147 -152 -478
-315 -938 -463 -277 -90 -476 -127 -852 -158 -199 -16 -1454 -23 -1740 -9
-524 25 -737 59 -1095 177 -420 137 -724 285 -884 429 -89 80 -240 331 -379
629 -227 489 -376 954 -441 1375 -49 317 -121 825 -136 955 -71 639 -11 1047
192 1302 219 274 695 474 1408 589 191 30 195 29 74 -20z m2294 -190 c415
-106 716 -406 829 -824 32 -120 37 -364 9 -499 -62 -299 -231 -548 -487 -719
-271 -180 -641 -234 -949 -137 -305 96 -550 305 -686 588 -206 426 -133 916
190 1267 155 168 401 302 622 338 41 6 81 13 89 15 8 2 76 2 150 0 101 -3 160
-10 233 -29z m-5133 -122 c227 -18 472 -46 690 -80 174 -26 399 -69 406 -77 3
-3 -9 -28 -26 -55 -146 -238 -212 -602 -189 -1047 13 -254 32 -414 124 -1030
20 -132 36 -256 36 -275 1 -36 -77 -234 -249 -635 -146 -340 -158 -364 -184
-370 -42 -9 -2333 -355 -2354 -355 -19 0 -22 8 -28 73 -4 39 -13 142 -21 227
-70 753 -65 1492 16 2080 75 548 243 1124 375 1282 137 164 345 249 689 282
76 8 531 -5 715 -20z m10472 16 c293 -24 497 -106 637 -255 73 -79 111 -155
186 -374 126 -373 213 -822 256 -1326 17 -205 23 -893 10 -1152 -17 -331 -58
-802 -72 -824 -6 -10 -274 27 -1181 165 -645 98 -1183 180 -1194 183 -13 3
-28 19 -37 41 -8 20 -61 143 -117 272 -56 129 -142 333 -191 454 l-89 218 61
412 c86 593 100 718 106 992 10 425 -34 667 -168 923 -27 52 -49 95 -49 97 0
12 323 68 620 108 459 62 954 88 1222 66z m-4652 -5914 c538 -33 835 -64 929
-96 180 -60 264 -184 247 -362 -11 -122 -84 -315 -224 -594 -174 -348 -369
-640 -655 -984 -225 -270 -767 -791 -960 -922 -108 -74 -201 -111 -287 -116
-145 -8 -249 45 -477 243 -192 166 -624 600 -778 780 -312 366 -543 712 -720
1077 -93 195 -127 281 -149 391 -55 263 30 432 249 496 104 31 657 78 1180
101 310 13 1346 4 1645 -14z"/>
<path d="M5185 13963 c-146 -22 -281 -88 -381 -188 -113 -112 -129 -153 -229
-593 -90 -398 -98 -457 -70 -561 26 -97 64 -162 144 -241 l76 -75 695 -356
c382 -196 747 -377 810 -402 232 -91 481 -137 743 -137 288 0 545 51 797 158
112 47 1406 712 1463 751 143 98 236 286 224 451 -2 36 -41 227 -87 425 -96
424 -112 466 -225 579 -78 79 -164 130 -285 168 -73 22 -84 23 -475 23 -357 0
-407 -2 -464 -18 -112 -32 -179 -72 -370 -220 -117 -91 -217 -146 -321 -179
-67 -21 -94 -23 -255 -23 -168 1 -185 3 -260 28 -105 35 -154 65 -332 198 -81
62 -179 127 -218 145 -139 66 -151 67 -570 70 -209 1 -393 0 -410 -3z m1073
-703 c18 -11 41 -34 52 -52 19 -31 20 -51 20 -398 0 -402 -1 -409 -63 -454
-27 -20 -43 -21 -331 -24 -300 -3 -302 -3 -336 20 -19 13 -43 39 -54 58 -20
33 -21 53 -24 355 -4 384 -1 414 41 462 17 19 40 39 51 43 12 5 154 9 316 9
277 1 297 0 328 -19z m2090 0 c18 -11 41 -34 52 -52 19 -31 20 -51 20 -404 0
-510 31 -474 -405 -474 -272 0 -292 1 -323 20 -18 11 -41 34 -52 52 -19 31
-20 51 -20 403 0 352 1 372 20 403 11 18 34 41 52 52 31 19 51 20 328 20 277
0 297 -1 328 -20z"/>
</g>
</svg>
