<?xml version="1.0" standalone="no"?>
<!DOCTYPE svg PUBLIC "-//W3C//DTD SVG 20010904//EN"
 "http://www.w3.org/TR/2001/REC-SVG-20010904/DTD/svg10.dtd">
<svg version="1.0" xmlns="http://www.w3.org/2000/svg"
 width="1785.000000pt" height="1588.000000pt" viewBox="0 0 1785.000000 1588.000000"
 preserveAspectRatio="xMidYMid meet">

<g transform="translate(0.000000,1588.000000) scale(0.100000,-0.100000)"
fill="#fff" stroke="none">
<path d="M8435 15859 c-656 -45 -1218 -205 -1604 -455 -278 -181 -521 -434
-697 -724 -73 -120 -201 -381 -245 -499 l-34 -91 -30 7 c-16 5 -73 8 -125 8
-87 0 -101 -3 -163 -34 -127 -61 -266 -213 -355 -389 -114 -224 -168 -436
-179 -698 -16 -389 102 -695 309 -798 39 -20 76 -36 83 -36 9 0 11 -56 7 -234
-3 -143 0 -278 7 -347 45 -434 190 -772 445 -1036 120 -125 209 -200 337 -283
184 -119 454 -240 694 -310 61 -18 111 -34 113 -35 2 -2 -37 -8 -85 -15 -725
-99 -1296 -305 -1587 -571 l-56 -51 -128 123 c-525 508 -779 675 -1122 735
-197 34 -367 3 -574 -104 -1036 -538 -2135 -1761 -3175 -3535 -202 -344 -269
-556 -258 -807 6 -139 23 -207 82 -326 131 -267 478 -474 795 -474 166 0 289
30 595 147 1153 440 2402 1026 3401 1595 l201 115 23 -124 c81 -451 270 -993
513 -1480 205 -407 307 -546 505 -681 228 -156 610 -318 1054 -446 l148 -43 2
-191 3 -192 -30 -5 c-16 -2 -78 -9 -136 -15 -290 -29 -478 -140 -579 -340 -97
-192 -87 -446 27 -733 51 -128 198 -419 280 -557 195 -326 432 -642 715 -950
198 -217 553 -559 769 -741 216 -181 446 -258 645 -216 170 36 312 118 530
305 719 617 1214 1231 1550 1927 98 202 167 373 194 481 83 323 -27 601 -290
732 -106 52 -212 79 -371 95 -118 12 -124 14 -123 35 0 12 1 100 2 195 l2 174
58 13 c86 19 439 135 594 196 382 148 643 309 774 477 190 243 478 850 638
1347 99 306 147 518 201 895 20 138 41 278 46 312 l11 62 100 -89 c55 -50 141
-125 191 -167 362 -303 739 -421 1067 -333 230 63 703 368 1115 721 155 132
567 544 727 725 510 580 984 1246 1495 2104 122 204 183 321 220 420 100 266
110 526 27 731 -98 241 -348 438 -651 510 -74 18 -108 20 -213 16 -190 -8
-280 -35 -809 -244 -1024 -405 -2052 -888 -2941 -1381 -476 -264 -892 -515
-1016 -614 l-84 -67 -69 29 c-254 104 -613 195 -996 250 -82 12 -151 23 -152
24 -1 1 53 18 121 38 403 120 751 314 986 548 212 213 347 452 425 755 53 208
68 355 64 650 l-4 253 40 12 c221 65 365 364 365 758 0 518 -234 1012 -550
1161 -47 22 -69 26 -150 26 -52 0 -108 -2 -124 -5 -28 -5 -29 -3 -75 110 -137
331 -275 565 -465 787 -449 525 -1106 795 -2096 863 -169 11 -781 11 -955 -1z
m950 -259 c976 -70 1588 -341 1991 -881 131 -177 247 -390 342 -629 80 -201
77 -183 38 -275 -69 -166 -90 -301 -83 -535 4 -123 12 -205 27 -274 73 -343
237 -642 419 -767 27 -19 53 -43 56 -54 14 -42 18 -522 6 -622 -61 -490 -259
-825 -642 -1081 -368 -246 -891 -399 -1629 -478 -209 -22 -1625 -28 -1875 -7
-444 36 -848 114 -1173 224 -697 238 -1065 621 -1175 1224 -19 104 -22 156
-22 395 0 307 6 366 36 375 35 11 185 167 234 243 98 153 172 338 216 547 21
97 24 136 24 330 0 248 -13 323 -81 481 l-35 82 47 124 c59 156 174 395 247
516 318 520 768 823 1447 971 205 45 364 66 715 94 101 9 745 6 870 -3z m6587
-5272 c513 -331 935 -603 937 -604 8 -7 -240 -373 -422 -624 -670 -919 -1368
-1609 -2032 -2007 -253 -152 -361 -190 -515 -179 -273 17 -513 163 -959 583
l-94 88 16 171 c57 581 12 969 -145 1266 -81 151 -215 299 -358 394 -38 26
-70 50 -70 54 0 29 730 461 1260 745 299 160 853 436 1200 599 135 63 246 115
247 115 2 1 423 -270 935 -601z m-11903 -478 c152 -43 330 -145 496 -285 122
-102 328 -292 444 -408 101 -102 103 -105 88 -128 -28 -44 -87 -198 -112 -292
-90 -344 -82 -743 29 -1487 26 -170 31 -228 23 -237 -17 -17 -451 -263 -720
-409 -128 -69 -436 -227 -686 -351 -405 -202 -456 -225 -480 -216 -19 7 -2034
1263 -2048 1277 -4 4 203 297 319 454 504 680 1050 1257 1547 1636 300 229
639 431 775 462 81 18 230 11 325 -16z m2622 -286 c-267 -148 -416 -365 -452
-654 -7 -65 -7 -143 1 -282 31 -538 115 -825 294 -1004 85 -85 195 -144 313
-169 194 -40 314 -70 393 -97 314 -111 544 -313 656 -578 18 -45 50 -149 70
-233 137 -576 207 -745 377 -903 129 -121 259 -173 481 -194 190 -18 376 11
526 82 71 34 100 55 175 132 75 75 100 108 142 191 69 134 121 289 178 530 64
270 90 355 137 450 158 314 438 499 906 595 245 50 317 83 432 199 86 87 142
184 189 329 64 196 103 494 104 802 1 171 -2 205 -21 274 -62 224 -202 398
-419 522 -42 24 -70 44 -62 44 29 0 313 -60 424 -90 176 -46 340 -106 483
-175 432 -209 597 -452 643 -946 24 -254 2 -519 -97 -1209 -88 -610 -113 -734
-211 -1050 -157 -508 -481 -1184 -648 -1356 -150 -154 -470 -313 -925 -462
-467 -153 -765 -182 -1855 -182 -770 0 -1095 15 -1405 66 -301 50 -837 236
-1105 385 -267 148 -350 248 -570 694 -217 439 -380 899 -466 1313 -21 104
-139 901 -163 1107 -85 724 -5 1152 266 1411 202 194 573 353 1065 459 209 44
225 44 144 -1z m2454 -149 c585 -112 987 -676 904 -1271 -67 -482 -447 -876
-927 -959 -108 -19 -286 -19 -394 0 -92 16 -233 62 -313 102 -151 77 -330 233
-424 372 -309 455 -253 1059 134 1446 265 265 648 382 1020 310z m315 -6035
c456 -15 1128 -63 1270 -90 118 -22 224 -78 274 -143 113 -147 81 -336 -128
-772 -309 -642 -797 -1254 -1449 -1814 -171 -147 -238 -196 -333 -241 -205
-99 -350 -54 -635 197 -758 664 -1295 1353 -1583 2026 -126 295 -122 531 11
648 85 74 177 100 428 123 715 66 1471 89 2145 66z"/>
<path d="M7093 14069 c-148 -25 -309 -113 -411 -225 -102 -110 -121 -161 -218
-585 -76 -329 -86 -385 -86 -469 0 -189 92 -362 251 -472 48 -34 1342 -700
1456 -750 388 -171 857 -217 1285 -126 111 23 254 67 360 111 41 16 392 193
780 391 l705 361 82 80 c64 63 90 98 118 156 45 95 69 205 62 284 -7 76 -162
762 -189 832 -49 132 -182 273 -321 341 -154 76 -160 77 -622 77 -310 0 -423
-3 -465 -13 -73 -18 -223 -91 -285 -140 -197 -152 -248 -188 -320 -222 -109
-52 -198 -70 -348 -70 -217 0 -325 41 -542 207 -159 122 -200 148 -288 184
-127 53 -193 59 -591 58 -198 -1 -384 -5 -413 -10z m1107 -755 c19 -11 45 -35
57 -54 23 -33 23 -36 23 -399 0 -408 -1 -413 -69 -458 -33 -23 -39 -23 -334
-23 -435 0 -407 -33 -407 475 0 512 -22 486 420 482 257 -2 277 -3 310 -23z
m2099 1 c19 -11 43 -33 55 -48 20 -28 21 -40 24 -400 2 -348 1 -374 -16 -407
-11 -19 -34 -45 -52 -57 -32 -23 -38 -23 -335 -23 -435 0 -405 -35 -405 473 0
379 2 400 48 440 47 43 83 47 372 44 255 -2 278 -3 309 -22z"/>
</g>
</svg>
